<svg id="lcd_icon" data-name="lcd icon" xmlns="http://www.w3.org/2000/svg" xmlns:xlink="http://www.w3.org/1999/xlink" viewBox="0 0 128.5364 128.5369">
    <defs>
        <style>
            .cls-1 { fill: url(#radial-gradient); }
            .cls-2 { fill: #cbd7c3; }
            .cls-3 { fill: #1f231d; }
        </style>
        <radialGradient id="radial-gradient" cx="48.1083" cy="0.2715" r="0.5" gradientTransform="translate(-5831.3486 30.9937) scale(122.5488)" gradientUnits="userSpaceOnUse">
            <stop offset="0.4" stop-color="#7d8c73"/>
            <stop offset="1" stop-color="#535c4d"/>
        </radialGradient>
    </defs>
    <g id="lcd_screen">
        <path class="cls-1" d="M13.2962,2.9935H115.2391a10.3032,10.3032,0,0,1,10.3032,10.3032h0V115.24A10.3027,10.3027,0,0,1,115.24,125.5423H13.2962A10.3026,10.3026,0,0,1,2.9935,115.24V13.2962A10.3027,10.3027,0,0,1,13.2962,2.9935Z"/>
        <path class="cls-2" d="M115.24,5.9874a7.3177,7.3177,0,0,1,7.31,7.3094V115.24a7.3177,7.3177,0,0,1-7.3095,7.31H13.2964a7.3177,7.3177,0,0,1-7.3094-7.31V13.2964a7.3177,7.3177,0,0,1,7.3094-7.309H115.24M115.24,0H13.2964A13.3359,13.3359,0,0,0,0,13.2964V115.24a13.3359,13.3359,0,0,0,13.2964,13.2969H115.24A13.3359,13.3359,0,0,0,128.5364,115.24V13.2964A13.3359,13.3359,0,0,0,115.24,0Z"/>
    </g>
    <g id="lcd_digit">
        <polygon id="topCenter" class="cls-3" points="74.346 30.865 83.59 21.622 78.968 17 47.772 17 43.151 21.622 52.394 30.865 74.346 30.865"/>
        <polygon id="topLeft"   class="cls-3" points="40.84 64.371 50.083 55.128 50.083 33.176 40.84 23.932 36.218 28.554 36.218 59.75 40.84 64.371"/>
        <polygon id="topRight"  class="cls-3" points="85.9 64.371 90.522 59.75 90.522 28.554 85.9 23.932 76.657 33.176 76.657 55.128 85.9 64.371"/>
        <polygon id="midCenter" class="cls-3" points="74.346 71.303 81.279 64.371 74.346 57.439 52.394 57.439 45.462 64.371 52.394 71.303 74.346 71.303"/>
        <polygon id="botLeft"   class="cls-3" points="40.84 104.81 50.083 95.567 50.083 73.614 40.84 64.371 36.218 68.993 36.218 100.188 40.84 104.81"/>
        <polygon id="botRight"  class="cls-3" points="85.9 104.81 90.522 100.188 90.522 68.993 85.9 64.371 76.657 73.614 76.657 95.567 85.9 104.81"/>
        <polygon id="botCenter" class="cls-3" points="78.968 111.742 83.59 107.121 74.346 97.878 52.394 97.878 43.151 107.121 47.772 111.742 78.968 111.742"/>
    </g>
</svg>
